<svg xmlns="http://www.w3.org/2000/svg" xmlns:xlink="http://www.w3.org/1999/xlink" version="1.1" id="Your_Icon" x="0px" y="0px" width="100px" height="100px" viewBox="5.0 -10.0 100.0 135.0" enable-background="new 0 0 100 100" xml:space="preserve">
<g id="XMLID_1_">
	<g>
		<g id="XMLID_2_">
			<g>
				<path d="M42.17,55h0.74c-0.2-0.17-0.4-0.33-0.58-0.52C36.47,49.19,32,38.9,32,30.58c0-11.76,9.63-21.3,18.74-21.3      c9.1,0,18.25,10.17,18.25,21.93c0,8.32-4.94,18.29-11.061,23.4c1.261,4.8,8.141,6.37,22.34,10.26      C96.05,69.2,99.86,80.22,99.81,87.42H0.4c-0.05-7.2,3.77-18.22,19.55-22.55C33.76,61.08,40.64,59.49,42.17,55z"/>
				<path d="M42.91,55h-0.74c0.06-0.17,0.11-0.34,0.16-0.52C42.51,54.67,42.71,54.83,42.91,55z"/>
			</g>
			<g>
			</g>
		</g>
	</g>
	<g>
	</g>
</g>
</svg>